<svg xmlns="http://www.w3.org/2000/svg" viewBox="0 0 236.35 40.94"><title>logo</title><g id="Layer_2" data-name="Layer 2"><g id="Layer_1-2" data-name="Layer 1"><path d="M0,40.12V36H11.32V6.87L.77,13.52V8.57l11.1-6.92h3.68V36H26.38v4.13Z"/><path d="M39,40.12V0h4.5V24.34h.11L55.89,11h6L51.22,22.53l12,17.59H57.76l-9.9-14.79h-.11L43.52,30V40.12Z"/><path d="M73.58,40.12V0h4.51V13.79h.11a10.09,10.09,0,0,1,8.08-3.62,11.49,11.49,0,0,1,9.15,4.23Q99,18.63,99,25.55c0,4.66-1.17,8.38-3.49,11.19a11.45,11.45,0,0,1-9.26,4.2,11.21,11.21,0,0,1-5.14-1.13,10.46,10.46,0,0,1-3.38-2.5h-.11v2.81Zm4.51-18.69v9A5.87,5.87,0,0,0,80.23,35a7.7,7.7,0,0,0,5.33,1.92,7.8,7.8,0,0,0,6.6-3q2.25-3,2.25-8.36T92.16,17.2a7.78,7.78,0,0,0-6.6-3,7,7,0,0,0-5.44,2.23A7.21,7.21,0,0,0,78.09,21.43Z"/><path d="M160.74,40.12V36.93h-.11a8.08,8.08,0,0,1-3.13,2.72,11.73,11.73,0,0,1-5.77,1.29c-3.23,0-5.69-.79-7.4-2.36a7.77,7.77,0,0,1-2.55-5.94A7.25,7.25,0,0,1,144.06,27c1.52-1.38,4.06-2.52,7.61-3.44a33,33,0,0,0,6.46-2.14,3.18,3.18,0,0,0,1.89-3,3.61,3.61,0,0,0-1.65-3,7.32,7.32,0,0,0-4.45-1.21q-5.82,0-7.09,5.77l-4.17-1.21a9.88,9.88,0,0,1,3.6-6.18,11.47,11.47,0,0,1,7.5-2.39,12.34,12.34,0,0,1,8,2.47,8.14,8.14,0,0,1,3.07,6.7V40.12Zm-8-13.14a13.45,13.45,0,0,0-5.08,2.26,4,4,0,0,0-1.35,3.13q0,4.56,5.78,4.56a9.25,9.25,0,0,0,6.09-1.79,5.48,5.48,0,0,0,2.15-4.37V23.52h-.11C159.67,24.58,157.18,25.74,152.71,27Z"/><path d="M181.29,40.12V11h4.29v4.23h.11A8.24,8.24,0,0,1,189,11.87a9.58,9.58,0,0,1,5-1.37,9.43,9.43,0,0,1,5.77,1.78,10.3,10.3,0,0,1,3.58,5.2l-4.4,1.86a5.41,5.41,0,0,0-5.66-4.28,6.79,6.79,0,0,0-5.36,2.42,9.39,9.39,0,0,0-2.11,6.42V40.12Z"/><path d="M221.41,31.65V15h-9.29V11h9.34V3.85h4.4V11h10.49v4H225.91V31.1a6.68,6.68,0,0,0,.72,3.63c.47.7,1.43,1,2.85,1h5v4.35h-5.17q-4.11,0-6-2.12C222,36.59,221.41,34.48,221.41,31.65Z"/></g></g></svg>